<?xml version="1.0" encoding="utf-8"?>
<!-- Generator: Adobe Illustrator 21.1.0, SVG Export Plug-In . SVG Version: 6.00 Build 0)  -->
<svg version="1.1" id="Layer_1" xmlns="http://www.w3.org/2000/svg" xmlns:xlink="http://www.w3.org/1999/xlink" x="0px" y="0px"
	 viewBox="0 0 89.3 100" style="enable-background:new 0 0 89.3 100;" xml:space="preserve">
<style type="text/css">
	.st0{fill:#E81818;}
</style>
<title>power</title>
<path class="st0" d="M44.7,100C20,100,0,79.6,0,54.4c-0.1-14.2,6.4-27.6,17.7-36.3c2.7-2.1,6.6-1.6,8.7,1.1c0,0,0.1,0.1,0.1,0.1
	c2.1,2.8,1.6,6.8-1.2,9c-8.1,6.2-12.7,15.9-12.7,26.1c0,18,14.4,32.7,32.1,32.7s32.1-14.7,32.1-32.7c0.1-10.2-4.6-19.8-12.7-26.1
	c-2.8-2.2-3.3-6.2-1.2-9c2-2.8,5.9-3.4,8.7-1.4c0.1,0,0.1,0.1,0.2,0.1c11.2,8.7,17.8,22.1,17.7,36.3C89.3,79.6,69.3,100,44.7,100z"
	/>
<path class="st0" d="M44.7,58.9c-3.6-0.2-6.5-3.3-6.3-6.9c0,0,0,0,0,0V6.9C38.2,3.2,41,0.2,44.7,0c3.6,0.2,6.4,3.2,6.3,6.9V52
	C51.1,55.6,48.3,58.7,44.7,58.9C44.7,58.9,44.7,58.9,44.7,58.9z"/>
</svg>
