<?xml version="1.0" encoding="utf-8"?>
<!-- Generator: Adobe Illustrator 24.1.0, SVG Export Plug-In . SVG Version: 6.00 Build 0)  -->
<svg version="1.1" id="Calque_1" xmlns="http://www.w3.org/2000/svg" xmlns:xlink="http://www.w3.org/1999/xlink" x="0px" y="0px"
	 viewBox="0 0 141.7 141.7" style="enable-background:new 0 0 141.7 141.7;" xml:space="preserve">
<style type="text/css">
	.st0{fill:#00BBDD;}
</style>
<g>
	<path class="st0" d="M128.6,2.8c-1.6-1.6-3.9-2.7-6.4-2.7h-15.1c-1.7,0-3,1.4-3,3v6c0,1.7,1.3,3,3,3h12.1v15.1v8.3
		c0,7.3-4.7,13.5-8.5,19.3c-5.9,9.2-19.4,9.2-25.3,0c-3.9-6-8.5-11.8-8.5-19.3v-8.3V12.2H89c1.7,0,3-1.3,3-3v-6c0-1.7-1.3-3-3-3H74
		c-2.5,0-4.8,1-6.4,2.7s-2.7,3.9-2.7,6.4v18.1v2.1c0,10.5,3.2,20.2,8.5,29.2c9.5,16,18.6,21.4,18.4,30.1c-0.2,5.6,0,11.2,0,16.8
		c0,13.3-10.8,24.1-24.1,24.1h-5.8c-13.3,0-24.1-10.8-24.1-24.1V83.7c8.7-2.6,15.1-10.7,15.1-20.2c0-11.7-9.5-21.1-21.1-21.1
		c-11.7,0-21.1,9.5-21.1,21.1c0,9.6,6.4,17.6,15.1,20.2v21.7c0,20,16.2,36.2,36.2,36.2h5.8c20,0,36.2-16.2,36.2-36.2v-9.8
		c0-4.6-0.1-13.1,1.9-17.3c6.7-5.4,14.3-10.9,18.3-19.1c5.7-8.8,7.2-19.5,7.2-30v-2.1V9.2C131.3,6.7,130.2,4.4,128.6,2.8 M20.4,63.5
		c0-6.2,5.1-11.3,11.3-11.3C38,52.1,43,57.2,43,63.5c0,6.2-5.1,11.3-11.3,11.3C25.5,74.8,20.4,69.7,20.4,63.5"/>
</g>
</svg>
