<?xml version="1.0" encoding="utf-8"?>
<!-- Generator: Adobe Illustrator 21.1.0, SVG Export Plug-In . SVG Version: 6.00 Build 0)  -->
<svg version="1.1" id="Layer_1" xmlns="http://www.w3.org/2000/svg" xmlns:xlink="http://www.w3.org/1999/xlink" x="0px" y="0px"
	 viewBox="0 0 630.5 457" style="enable-background:new 0 0 630.5 457;" xml:space="preserve">
<style type="text/css">
	.st0{fill:#00BBDD;}
</style>
<g>
	<path class="st0" d="M26.5,240c-7,6-18,4-23-4c-6-8-4-18,4-23l303-210c6-4,13-4,19,0l297,206c7,5,9,16,4,23c-5,8-16,10-24,5l-45-32
		l3,235c0,9-7,17-16,17h-168c-9,0-17-8-17-17V287c0-1-3-3-7-6c-9-4-22-6-37-6c-14,0-27,2-36,6l-1,1c-4,2-6,4-6,5l-1,153
		c0,9-7,17-17,17h-167c-10,0-17-8-17-17V207L26.5,240z M319.5,37l-211,147v239h134V287c0-15,9-27,25-35l2-1c13-6,31-10,50-10
		c20,0,38,4,51,10c17,8,27,20,27,36v136h133l-3-242L319.5,37z"/>
</g>
</svg>
