<?xml version="1.0" encoding="utf-8"?>
<!-- Generator: Adobe Illustrator 21.1.0, SVG Export Plug-In . SVG Version: 6.00 Build 0)  -->
<svg version="1.1" id="Layer_1" xmlns="http://www.w3.org/2000/svg" xmlns:xlink="http://www.w3.org/1999/xlink" x="0px" y="0px"
	 viewBox="0 0 62.4 33" style="enable-background:new 0 0 62.4 33;" xml:space="preserve">
<style type="text/css">
	.st0{display:none;}
	.st1{display:inline;}
	.st2{fill:#00BBDD;}
	.st3{fill:url(#SVGID_1_);}
	.st4{fill:url(#SVGID_2_);}
	.st5{fill:url(#SVGID_3_);}
	.st6{fill:url(#SVGID_4_);}
	.st7{fill:url(#SVGID_5_);}
	.st8{fill:url(#SVGID_6_);}
	.st9{fill:url(#SVGID_7_);}
	.st10{fill:url(#SVGID_8_);}
</style>
<g class="st0">
	<rect x="-740.8" y="-120.7" class="st1" width="1426.3" height="362.4"/>
</g>
<g>
	<g>
		<linearGradient id="SVGID_1_" gradientUnits="userSpaceOnUse" x1="23.837" y1="30.2461" x2="41.6734" y2="30.2461">
			<stop  offset="0" style="stop-color:#00BBDD"/>
			<stop  offset="1" style="stop-color:#0096DB"/>
		</linearGradient>
		<path class="st3" d="M17.7,29.3h-11c-0.5,0-0.9,0.4-0.9,0.9c0,0.5,0.4,0.9,0.9,0.9h11c0.5,0,0.9-0.4,0.9-0.9
			C18.6,29.7,18.2,29.3,17.7,29.3z"/>
		<linearGradient id="SVGID_2_" gradientUnits="userSpaceOnUse" x1="23.837" y1="26.2035" x2="41.6734" y2="26.2035">
			<stop  offset="0" style="stop-color:#00BBDD"/>
			<stop  offset="1" style="stop-color:#0096DB"/>
		</linearGradient>
		<path class="st4" d="M14.8,26.2c0-0.5-0.4-0.9-0.9-0.9H3.5c-0.5,0-0.9,0.4-0.9,0.9s0.4,0.9,0.9,0.9h10.4
			C14.4,27.1,14.8,26.7,14.8,26.2z"/>
		<linearGradient id="SVGID_3_" gradientUnits="userSpaceOnUse" x1="23.837" y1="22.1621" x2="41.6734" y2="22.1621">
			<stop  offset="0" style="stop-color:#00BBDD"/>
			<stop  offset="1" style="stop-color:#0096DB"/>
		</linearGradient>
		<path class="st5" d="M10.7,22.2c0-0.5-0.4-0.9-0.9-0.9H0.9c-0.5,0-0.9,0.4-0.9,0.9c0,0.5,0.4,0.9,0.9,0.9h8.9
			C10.3,23.1,10.7,22.7,10.7,22.2z"/>
	</g>
	<linearGradient id="SVGID_4_" gradientUnits="userSpaceOnUse" x1="23.837" y1="16.5131" x2="41.6734" y2="16.5131">
		<stop  offset="0" style="stop-color:#00BBDD"/>
		<stop  offset="1" style="stop-color:#0096DB"/>
	</linearGradient>
	<path class="st6" d="M59.2,0.7c-3-1.6-6.7-0.5-8.3,2.5l-3.7,6.9l-0.4,0.7c-1.4-2.5-4-4.2-7.1-4.2H15.2v2.6c0,1.3,0.4,2.5,1.1,3.4
		h-4.2v2.6c0,3,2.2,5.4,5.1,5.8v0.5c0,2.8,2,5.2,4.7,5.7v0c0,3.2,2.6,5.8,5.8,5.8h18.7c2.2,0,3.9-1.8,3.9-3.9c0-0.6-0.1-1.2-0.4-1.8
		c1.4-0.5,2.6-1.4,3.4-2.8l4.6-8.5l3.7-7C63.3,6.1,62.2,2.3,59.2,0.7z M49.5,9.4l3.3-6.2c0.2-0.4,0.8-0.6,1.2-0.4
		c0.4,0.2,0.6,0.8,0.4,1.2l-3.4,6.2c-0.2,0.4-0.8,0.6-1.2,0.4S49.3,9.8,49.5,9.4z M17.4,8.8h22.3c2.8,0,5.2,2,5.8,4.6l-1.8,3.3
		c-1.4-2.4-4-4-7-4H19.9c-1.4-0.5-2.5-1.8-2.5-3.4V8.8z M46.5,30.8H27.8c-2,0-3.6-1.6-3.6-3.5h8.2c0.6,0,1.1-0.5,1.1-1.1
		c0-0.6-0.5-1.1-1.1-1.1H23c-2,0-3.6-1.6-3.6-3.6v-0.4h7.8c0.6,0,1.1-0.5,1.1-1.1c0-0.6-0.5-1.1-1.1-1.1H18c-2,0-3.6-1.6-3.6-3.6
		v-0.4h22.2c2.7,0,5,1.8,5.7,4.3c0.2,0.5,0.2,1,0.2,1.6v2.5c0,0.5,0.1,1.1,0.3,1.5c0.5,1.4,1.8,2.4,3.3,2.5c0,0,0,0,0,0
		c0.1,0,0.2,0,0.3,0c0.3,0,0.5,0.1,0.8,0.2c0.5,0.3,0.9,0.9,0.9,1.5C48.2,30.1,47.4,30.8,46.5,30.8z M53,21.4l-1.2,2.2
		c-0.6,1.1-1.7,1.9-2.8,2.1c-1,0.2-2.1,0.1-3.1-0.4c-0.5-0.3-0.8-0.5-1.2-0.9l0,0c-0.3-0.2-0.2-5.7-0.2-5.7l1.1-2l2-3.7l0.3-0.5
		l7.7,4.2L53,21.4z"/>
</g>
</svg>
