<?xml version="1.0" encoding="utf-8"?>
<!-- Generator: Adobe Illustrator 24.1.0, SVG Export Plug-In . SVG Version: 6.00 Build 0)  -->
<svg version="1.1" id="Calque_1" xmlns="http://www.w3.org/2000/svg" xmlns:xlink="http://www.w3.org/1999/xlink" x="0px" y="0px"
	 viewBox="0 0 141.7 141.7" style="enable-background:new 0 0 141.7 141.7;" xml:space="preserve">
<style type="text/css">
	.st0{fill:#00BBDD;}
</style>
<path class="st0" d="M136.1,141.5c-3.1,0-5.6-2.5-5.6-5.6c0-9.4-13.5-23.8-35.3-30.7c-2.1-0.7-3.6-2.5-3.9-4.7
	c-0.3-2.2,0.8-4.4,2.7-5.5c13.8-8.2,22-22.7,22-38.6c0-24.8-20.2-45.1-45.1-45.1S25.8,31.5,25.8,56.3c0,15.9,8.2,30.4,22,38.6
	c1.9,1.1,3,3.3,2.7,5.5c-0.3,2.2-1.8,4-3.9,4.7c-21.8,6.9-35.3,21.3-35.3,30.7c0,3.1-2.5,5.6-5.6,5.6S0,139,0,135.9
	c0-13.9,13.5-28.8,33.2-37.7C21.4,87.6,14.5,72.6,14.5,56.3C14.5,25.3,39.8,0,70.9,0s56.3,25.3,56.3,56.3c0,16.3-6.8,31.3-18.7,41.9
	c19.8,8.9,33.2,23.8,33.2,37.7C141.7,139,139.2,141.5,136.1,141.5z"/>
</svg>
